<mxfile host="app.diagrams.net" modified="2023-10-16T23:52:44.069Z" agent="Mozilla/5.0 (Windows NT 10.0; Win64; x64; rv:109.0) Gecko/20100101 Firefox/118.0" etag="mk18_q7ZKo4pioxTlMbw" version="22.0.4" type="device">
  <diagram name="Stránka-1" id="SZflLTvGPq7JX6_4BzlD">
    <mxGraphModel dx="1026" dy="506" grid="1" gridSize="10" guides="1" tooltips="1" connect="1" arrows="1" fold="1" page="1" pageScale="1" pageWidth="827" pageHeight="1169" math="0" shadow="0">
      <root>
        <mxCell id="0" />
        <mxCell id="1" parent="0" />
        <mxCell id="q4pzPnrohXeNWm_JFjDt-1" value="Uživatel" style="shape=umlActor;verticalLabelPosition=bottom;verticalAlign=top;html=1;outlineConnect=0;" vertex="1" parent="1">
          <mxGeometry x="160" y="140" width="30" height="60" as="geometry" />
        </mxCell>
        <mxCell id="q4pzPnrohXeNWm_JFjDt-2" value="" style="endArrow=classic;html=1;rounded=0;" edge="1" parent="1" source="q4pzPnrohXeNWm_JFjDt-5" target="q4pzPnrohXeNWm_JFjDt-7">
          <mxGeometry width="50" height="50" relative="1" as="geometry">
            <mxPoint x="510" y="190" as="sourcePoint" />
            <mxPoint x="444" y="330" as="targetPoint" />
          </mxGeometry>
        </mxCell>
        <mxCell id="q4pzPnrohXeNWm_JFjDt-3" value="Extends" style="edgeLabel;html=1;align=center;verticalAlign=middle;resizable=0;points=[];" vertex="1" connectable="0" parent="q4pzPnrohXeNWm_JFjDt-2">
          <mxGeometry x="-0.022" y="4" relative="1" as="geometry">
            <mxPoint as="offset" />
          </mxGeometry>
        </mxCell>
        <mxCell id="q4pzPnrohXeNWm_JFjDt-4" value="" style="endArrow=none;html=1;rounded=0;" edge="1" parent="1" source="q4pzPnrohXeNWm_JFjDt-7" target="q4pzPnrohXeNWm_JFjDt-1">
          <mxGeometry width="50" height="50" relative="1" as="geometry">
            <mxPoint x="324" y="330" as="sourcePoint" />
            <mxPoint x="320" y="330" as="targetPoint" />
          </mxGeometry>
        </mxCell>
        <mxCell id="q4pzPnrohXeNWm_JFjDt-5" value="Zobrazení detailních informací o daném místě" style="ellipse;whiteSpace=wrap;html=1;fillColor=#d5e8d4;strokeColor=#82b366;" vertex="1" parent="1">
          <mxGeometry x="560" y="130" width="120" height="80" as="geometry" />
        </mxCell>
        <mxCell id="q4pzPnrohXeNWm_JFjDt-9" style="edgeStyle=orthogonalEdgeStyle;rounded=0;orthogonalLoop=1;jettySize=auto;html=1;" edge="1" parent="1" source="q4pzPnrohXeNWm_JFjDt-6" target="q4pzPnrohXeNWm_JFjDt-5">
          <mxGeometry relative="1" as="geometry" />
        </mxCell>
        <mxCell id="q4pzPnrohXeNWm_JFjDt-10" value="&lt;div&gt;Extends&lt;/div&gt;" style="edgeLabel;html=1;align=center;verticalAlign=middle;resizable=0;points=[];" vertex="1" connectable="0" parent="q4pzPnrohXeNWm_JFjDt-9">
          <mxGeometry x="-0.04" y="1" relative="1" as="geometry">
            <mxPoint as="offset" />
          </mxGeometry>
        </mxCell>
        <mxCell id="q4pzPnrohXeNWm_JFjDt-6" value="Navigace ke zvolenému místu pomocí externí aplikace" style="ellipse;whiteSpace=wrap;html=1;fillColor=#d5e8d4;strokeColor=#82b366;" vertex="1" parent="1">
          <mxGeometry x="560" y="310" width="120" height="80" as="geometry" />
        </mxCell>
        <mxCell id="q4pzPnrohXeNWm_JFjDt-7" value="Vyhledání specifického místa" style="ellipse;whiteSpace=wrap;html=1;" vertex="1" parent="1">
          <mxGeometry x="310" y="130" width="120" height="80" as="geometry" />
        </mxCell>
      </root>
    </mxGraphModel>
  </diagram>
</mxfile>
